<svg width="54" height="54" viewBox="0 0 54 54" fill="none" xmlns="http://www.w3.org/2000/svg">
<path d="M18 43.75C21.1667 45.4167 24.1667 46.25 27 46.25C29.8333 46.25 32.7917 45.4167 35.875 43.75C39.0417 42.0833 41.4167 40.0417 43 37.625C42.9167 35.2917 41.0417 33.3333 37.375 31.75C33.7083 30.1667 30.25 29.375 27 29.375C23.75 29.375 20.2917 30.1667 16.625 31.75C12.9583 33.25 11.0833 35.2083 11 37.625C12.5833 40.0417 14.9167 42.0833 18 43.75ZM32.625 10.75C31.0417 9.16667 29.1667 8.375 27 8.375C24.8333 8.375 22.9583 9.16667 21.375 10.75C19.7917 12.3333 19 14.2083 19 16.375C19 18.5417 19.7917 20.4167 21.375 22C22.9583 23.5833 24.8333 24.375 27 24.375C29.1667 24.375 31.0417 23.5833 32.625 22C34.2083 20.4167 35 18.5417 35 16.375C35 14.2083 34.2083 12.3333 32.625 10.75ZM8.125 8.25C13.375 3 19.6667 0.375 27 0.375C34.3333 0.375 40.5833 3 45.75 8.25C51 13.4167 53.625 19.6667 53.625 27C53.625 34.3333 51 40.625 45.75 45.875C40.5833 51.0417 34.3333 53.625 27 53.625C19.6667 53.625 13.375 51.0417 8.125 45.875C2.95833 40.625 0.375 34.3333 0.375 27C0.375 19.6667 2.95833 13.4167 8.125 8.25Z" fill="url(#paint0_linear)"/>
<defs>
<linearGradient id="paint0_linear" x1="-18.4737" y1="27" x2="72.4737" y2="27" gradientUnits="userSpaceOnUse">
<stop stop-color="#F27A54"/>
<stop offset="1" stop-color="#A154F2"/>
</linearGradient>
</defs>
</svg>
