<svg width="14" height="14" viewBox="0 0 14 14" fill="none" xmlns="http://www.w3.org/2000/svg">
<path d="M10.3438 7C10.3438 7.1875 10.2708 7.34375 10.125 7.46875C10 7.59375 9.84375 7.65625 9.65625 7.65625H3L0.34375 10.3438V1C0.34375 0.8125 0.40625 0.65625 0.53125 0.53125C0.65625 0.40625 0.8125 0.34375 1 0.34375H9.65625C9.84375 0.34375 10 0.40625 10.125 0.53125C10.2708 0.65625 10.3438 0.8125 10.3438 1V7ZM13 3C13.1875 3 13.3438 3.0625 13.4688 3.1875C13.5938 3.3125 13.6562 3.46875 13.6562 3.65625V13.6562L11 11H3.65625C3.46875 11 3.3125 10.9375 3.1875 10.8125C3.0625 10.6875 3 10.5312 3 10.3438V9H11.6562V3H13Z" fill="white"/>
</svg>
