<svg width="118" height="40" viewBox="0 0 118 40" fill="none" xmlns="http://www.w3.org/2000/svg">
<circle cx="28" cy="20" r="12" fill="url(#paint0_linear)"/>
<circle cx="28" cy="20" r="11.5" stroke="url(#paint1_linear)" stroke-opacity="0.3" style="mix-blend-mode:overlay"/>
<circle cx="12" cy="20" r="12" transform="rotate(180 12 20)" fill="url(#paint2_linear)"/>
<circle cx="12" cy="20" r="11.5" transform="rotate(180 12 20)" stroke="url(#paint3_linear)" stroke-opacity="0.3" style="mix-blend-mode:overlay"/>
<circle cx="20" cy="28" r="12" transform="rotate(90 20 28)" fill="url(#paint4_linear)"/>
<circle cx="20" cy="28" r="11.5" transform="rotate(90 20 28)" stroke="url(#paint5_linear)" stroke-opacity="0.3" style="mix-blend-mode:overlay"/>
<circle cx="20" cy="12" r="11.5" transform="rotate(-90 20 12)" stroke="url(#paint6_linear)" stroke-opacity="0.3" style="mix-blend-mode:overlay"/>
<circle cx="20" cy="12" r="12" transform="rotate(-90 20 12)" fill="url(#paint7_linear)"/>
<path d="M59.162 19.372H62.006V24.394C61.334 24.886 60.506 25.288 59.522 25.6C58.55 25.9 57.626 26.05 56.75 26.05C55.478 26.05 54.326 25.768 53.294 25.204C52.274 24.628 51.47 23.842 50.882 22.846C50.294 21.85 50 20.734 50 19.498C50 18.274 50.3 17.17 50.9 16.186C51.512 15.19 52.346 14.41 53.402 13.846C54.47 13.282 55.658 13 56.966 13C57.902 13 58.838 13.174 59.774 13.522C60.71 13.858 61.502 14.314 62.15 14.89L60.278 17.194C59.822 16.762 59.294 16.42 58.694 16.168C58.106 15.916 57.524 15.79 56.948 15.79C56.276 15.79 55.67 15.952 55.13 16.276C54.59 16.6 54.164 17.044 53.852 17.608C53.54 18.172 53.384 18.802 53.384 19.498C53.384 20.206 53.54 20.848 53.852 21.424C54.164 21.988 54.596 22.432 55.148 22.756C55.7 23.08 56.312 23.242 56.984 23.242C57.62 23.242 58.346 23.038 59.162 22.63V19.372Z" fill="white"/>
<path d="M71.765 25.816L69.929 22.324H67.481V25.816H64.187V13.198H69.857C71.525 13.198 72.815 13.588 73.727 14.368C74.651 15.136 75.113 16.222 75.113 17.626C75.113 18.574 74.921 19.396 74.537 20.092C74.153 20.776 73.595 21.31 72.863 21.694L75.491 25.816H71.765ZM67.481 19.696H69.875C70.547 19.696 71.063 19.528 71.423 19.192C71.795 18.856 71.981 18.37 71.981 17.734C71.981 17.122 71.795 16.654 71.423 16.33C71.063 15.994 70.547 15.826 69.875 15.826H67.481V19.696Z" fill="white"/>
<path d="M86.4823 25.816L85.6183 23.584H80.1643L79.2823 25.816H75.8983L81.3163 13.198H84.7003L89.9923 25.816H86.4823ZM81.1543 21.064H84.6463L82.9183 16.564L81.1543 21.064Z" fill="white"/>
<path d="M96.5702 13.198C97.8902 13.198 99.0542 13.462 100.062 13.99C101.082 14.518 101.874 15.262 102.438 16.222C103.002 17.17 103.284 18.262 103.284 19.498C103.284 20.734 102.996 21.832 102.42 22.792C101.856 23.752 101.052 24.496 100.008 25.024C98.9762 25.552 97.7882 25.816 96.4442 25.816H91.1342V13.198H96.5702ZM96.6602 23.152C97.2962 23.152 97.8602 23.002 98.3522 22.702C98.8442 22.402 99.2282 21.976 99.5042 21.424C99.7802 20.872 99.9182 20.242 99.9182 19.534C99.9182 18.814 99.7682 18.178 99.4682 17.626C99.1802 17.074 98.7782 16.648 98.2622 16.348C97.7462 16.036 97.1582 15.88 96.4982 15.88H94.4282V23.152H96.6602Z" fill="white"/>
<path d="M113.851 25.816L112.987 23.584H107.533L106.651 25.816H103.267L108.685 13.198H112.069L117.361 25.816H113.851ZM108.523 21.064H112.015L110.287 16.564L108.523 21.064Z" fill="white"/>
<defs>
<linearGradient id="paint0_linear" x1="28" y1="8" x2="28" y2="32" gradientUnits="userSpaceOnUse">
<stop stop-color="#F27A54" stop-opacity="0"/>
<stop offset="1" stop-color="#F27A54"/>
</linearGradient>
<linearGradient id="paint1_linear" x1="28" y1="8" x2="28" y2="32" gradientUnits="userSpaceOnUse">
<stop offset="0.508287" stop-color="white" stop-opacity="0"/>
<stop offset="1" stop-color="white"/>
</linearGradient>
<linearGradient id="paint2_linear" x1="12" y1="8" x2="12" y2="32" gradientUnits="userSpaceOnUse">
<stop stop-color="#F27A54" stop-opacity="0"/>
<stop offset="1" stop-color="#F27A54"/>
</linearGradient>
<linearGradient id="paint3_linear" x1="12" y1="8" x2="12" y2="32" gradientUnits="userSpaceOnUse">
<stop offset="0.508287" stop-color="white" stop-opacity="0"/>
<stop offset="1" stop-color="white"/>
</linearGradient>
<linearGradient id="paint4_linear" x1="20" y1="16" x2="20" y2="40" gradientUnits="userSpaceOnUse">
<stop stop-color="#A154F2" stop-opacity="0"/>
<stop offset="1" stop-color="#A154F2"/>
</linearGradient>
<linearGradient id="paint5_linear" x1="20" y1="16" x2="20" y2="40" gradientUnits="userSpaceOnUse">
<stop offset="0.508287" stop-color="white" stop-opacity="0"/>
<stop offset="1" stop-color="white"/>
</linearGradient>
<linearGradient id="paint6_linear" x1="20" y1="0" x2="20" y2="24" gradientUnits="userSpaceOnUse">
<stop offset="0.508287" stop-color="white" stop-opacity="0"/>
<stop offset="1" stop-color="white"/>
</linearGradient>
<linearGradient id="paint7_linear" x1="20" y1="0" x2="20" y2="24" gradientUnits="userSpaceOnUse">
<stop stop-color="#A154F2" stop-opacity="0"/>
<stop offset="1" stop-color="#A154F2"/>
</linearGradient>
</defs>
</svg>
